<?xml version="1.0" standalone="no"?><!DOCTYPE svg PUBLIC "-//W3C//DTD SVG 1.1//EN" "http://www.w3.org/Graphics/SVG/1.1/DTD/svg11.dtd"><svg t="1577252489668" class="icon" viewBox="0 0 1286 1024" version="1.1" xmlns="http://www.w3.org/2000/svg" p-id="2690" width="188.37890625" height="150" xmlns:xlink="http://www.w3.org/1999/xlink"><defs><style type="text/css"></style></defs><path d="M1164.045169 158.032622H980.316186L883.954831 0H402.148055l-96.361355 158.032622H120.772898c-39.82936 0-120.772898 39.82936-120.772898 116.918444v630.845672c0 65.525721 60.386449 118.203262 111.779172 118.203262h1054.835634c52.677541 0 118.203262-55.247177 118.203262-116.918444V274.951066c0-38.544542-39.82936-116.918444-120.772899-116.918444z m41.114179 747.764116c0 15.417817-25.696361 37.259724-37.259724 38.544542H111.779172c-8.993726-1.284818-32.120452-17.987453-32.120452-39.82936V273.666248c0-24.411543 34.690088-37.259724 39.82936-38.544542h229.982434l23.126726-38.544542L445.83187 77.089084h393.154328l71.949812 119.48808 21.841907 38.544542h229.982434c28.265997 0 39.82936 35.974906 39.82936 39.82936v630.845672zM642.409034 274.951066c-155.462986 0-281.375157 123.342535-281.375157 274.951067 0 151.608532 125.912171 274.951066 281.375157 274.951066s281.375157-123.342535 281.375157-274.951066c0-151.608532-125.912171-274.951066-281.375157-274.951067z m0 472.813049c-110.494354 0-200.431619-88.652447-200.431619-196.577164s89.937265-196.577164 200.431619-196.577164 200.431619 88.652447 200.431618 196.577164-89.937265 196.577164-200.431618 196.577164z m0 0" p-id="2691" fill="#515151"></path></svg>